<svg width="48" height="48" viewBox="0 0 48 48" fill="none" xmlns="http://www.w3.org/2000/svg">
<circle cx="24" cy="24" r="24" fill="#F0F9F3"/>
<path d="M27.29 20.85L22.56 25.59L20.71 23.73C20.5217 23.5417 20.2663 23.4359 20 23.4359C19.7337 23.4359 19.4783 23.5417 19.29 23.73C19.1017 23.9183 18.9959 24.1737 18.9959 24.44C18.9959 24.5719 19.0219 24.7024 19.0723 24.8242C19.1228 24.9461 19.1967 25.0568 19.29 25.15L21.85 27.71C21.943 27.8037 22.0536 27.8781 22.1754 27.9289C22.2973 27.9797 22.428 28.0058 22.56 28.0058C22.692 28.0058 22.8227 27.9797 22.9446 27.9289C23.0664 27.8781 23.177 27.8037 23.27 27.71L28.71 22.27C28.8032 22.1768 28.8772 22.0661 28.9276 21.9442C28.9781 21.8224 29.0041 21.6919 29.0041 21.56C29.0041 21.4281 28.9781 21.2976 28.9276 21.1758C28.8772 21.0539 28.8032 20.9432 28.71 20.85C28.6167 20.7568 28.5061 20.6828 28.3842 20.6323C28.2624 20.5819 28.1318 20.5559 28 20.5559C27.8681 20.5559 27.7376 20.5819 27.6157 20.6323C27.4939 20.6828 27.3832 20.7568 27.29 20.85ZM24 14C22.6868 14 21.3864 14.2587 20.1732 14.7612C18.9599 15.2638 17.8575 16.0003 16.9289 16.9289C15.0536 18.8043 14 21.3478 14 24C13.9912 26.3091 14.7908 28.5485 16.26 30.33L14.26 32.33C14.1212 32.4706 14.0272 32.6492 13.9899 32.8432C13.9525 33.0372 13.9734 33.2379 14.05 33.42C14.133 33.5999 14.2677 33.7511 14.4368 33.8544C14.606 33.9577 14.802 34.0083 15 34H24C26.6522 34 29.1957 32.9464 31.0711 31.0711C32.9464 29.1957 34 26.6522 34 24C34 21.3478 32.9464 18.8043 31.0711 16.9289C29.1957 15.0536 26.6522 14 24 14ZM24 32H17.41L18.34 31.07C18.5262 30.8826 18.6308 30.6292 18.6308 30.365C18.6308 30.1008 18.5262 29.8474 18.34 29.66C17.0306 28.352 16.2152 26.6305 16.0327 24.7888C15.8502 22.947 16.3119 21.099 17.3392 19.5595C18.3665 18.02 19.8958 16.8844 21.6665 16.346C23.4372 15.8076 25.3398 15.8998 27.0502 16.6069C28.7606 17.314 30.1728 18.5923 31.0464 20.2239C31.92 21.8555 32.2009 23.7395 31.8411 25.555C31.4814 27.3705 30.5033 29.005 29.0735 30.1802C27.6438 31.3554 25.8508 31.9985 24 32Z" fill="#6DC285"/>
</svg>
