<svg width="210" height="107" viewBox="0 0 210 107" fill="none" xmlns="http://www.w3.org/2000/svg">
<path d="M55.8294 69.9388C55.7213 69.9221 55.5771 70.216 55.3969 70.7982C54.8896 72.4616 54.5292 73.4874 54.288 73.8645C53.7497 74.8552 52.9908 75.7089 52.0701 76.3596C51.0665 77.1137 50.5508 77.5656 50.512 77.718C50.4732 77.8705 50.5286 77.9537 50.6839 77.9343C51.1691 77.9343 51.9647 77.7014 53.057 77.2218C53.5877 77.0198 54.0422 76.6573 54.3573 76.1849C54.7244 75.5479 55.0042 74.8644 55.189 74.1528C55.7213 72.1511 55.9736 70.8259 55.9652 70.2022C55.9819 70.0386 55.9375 69.9499 55.8294 69.9388Z" fill="#6DC285"/>
<path d="M61.9397 64.7683C62.2641 65.0039 62.4942 65.1925 62.6688 65.3228C62.8962 65.3228 63.1568 65.0622 63.4451 64.5299C63.5257 64.3507 63.5916 64.1653 63.6419 63.9754C63.7754 64.1294 63.9282 64.2654 64.0966 64.3802C64.3419 64.5512 64.577 64.7363 64.8008 64.9346C65.0364 64.9346 65.297 64.674 65.5771 64.1417C65.7671 63.8258 65.8633 63.4623 65.8543 63.0938C65.7947 62.8805 65.6833 62.6852 65.5299 62.5254C65.2757 62.2657 64.9972 62.0308 64.6982 61.824C64.4423 62.2024 64.2161 62.6 64.0218 63.0134C63.8721 63.3183 63.7695 63.5374 63.7029 63.6871C63.7086 63.6188 63.7086 63.5502 63.7029 63.4819C63.6458 63.2709 63.5447 63.0744 63.4063 62.9053C63.1571 62.6368 62.8781 62.3978 62.5746 62.1928C62.317 62.5727 62.0846 62.9691 61.8787 63.3793C61.7214 63.6649 61.5824 63.9603 61.4629 64.2637C61.4601 64.3635 61.6237 64.5243 61.9397 64.7683Z" fill="#6DC285"/>
<path d="M62.8964 62.2477C63.2013 62.4834 63.4508 62.6719 63.6089 62.8022C63.8417 62.8022 64.0857 62.525 64.3657 62.0065C64.5604 61.6865 64.6568 61.3163 64.643 60.9419C64.5951 60.7334 64.4916 60.5418 64.3435 60.3875C64.0944 60.1141 63.8155 59.8695 63.5118 59.6583C63.2539 60.0423 63.0241 60.4444 62.8243 60.8615C62.6593 61.142 62.5227 61.4383 62.4167 61.7459C62.4167 61.8457 62.5803 62.0148 62.8964 62.2477Z" fill="#6DC285"/>
<path d="M80.6004 51.713C82.7019 49.5256 83.7581 47.9481 83.7803 47C82.335 48.6634 79.8583 50.9229 76.3504 53.7784C72.8424 56.634 70.9017 58.2974 70.5284 58.7687C69.9833 59.3645 69.5713 60.0695 69.3196 60.8369C70.9831 59.6004 72.9237 58.1006 75.1416 56.3595C77.3595 54.6185 79.1754 53.0548 80.6004 51.713Z" fill="#6DC285"/>
<path d="M69.1478 60.862L68.1026 63.4181C67.9677 63.7434 67.9132 64.3838 67.939 65.3394L67.9585 67.2385C67.9585 68.511 67.659 69.3954 67.099 69.8888C67.0947 69.8745 67.0891 69.8606 67.0824 69.8472C67.0042 69.89 66.9226 69.9261 66.8384 69.9554C66.7881 69.9747 66.7333 69.979 66.6806 69.9677C66.6279 69.9563 66.5797 69.9299 66.5418 69.8916C66.442 69.8195 66.3782 69.7918 66.3699 69.8195C66.0455 70.4793 65.7101 70.7677 65.3663 70.6762C65.2805 70.6192 65.1872 70.5744 65.0891 70.5431C65.0419 70.5237 64.9532 70.6235 64.834 70.8481C64.7595 70.9897 64.648 71.1083 64.5112 71.1914C64.3745 71.2744 64.2177 71.3186 64.0577 71.3194C63.9212 71.2862 63.7947 71.2206 63.689 71.1281C63.6447 71.1281 63.5809 71.1835 63.4894 71.3C63.4322 71.3768 63.3691 71.449 63.3009 71.5162C63.1754 71.6524 63.0233 71.7613 62.854 71.8361C62.6847 71.911 62.5018 71.9503 62.3167 71.9515C62.2058 71.9515 62.106 71.9515 62.0173 71.9515C61.9874 71.505 61.8525 71.0718 61.6236 70.6873C61.525 70.4977 61.3778 70.3378 61.1971 70.2238C61.0164 70.1098 60.8086 70.0459 60.595 70.0385C60.1875 70.0385 59.7633 70.4433 59.3114 71.239C58.8595 72.0346 58.635 72.6446 58.635 73.0687C58.635 73.6232 59.0592 73.9725 59.9269 74.1084C60.1916 74.1607 60.4663 74.1185 60.7032 73.9892C60.7032 74.6573 59.6996 75.586 57.7146 76.7615C57.1601 77.0582 56.7415 77.316 56.4337 77.5101C56.126 77.7041 55.9818 77.8261 56.0012 77.8538C56.0206 77.8816 56.1094 77.9065 56.2618 77.9065C56.5871 77.9342 57.5621 77.657 59.1867 77.0748C60.1154 76.7782 60.9083 75.8383 61.5765 74.2609C61.6728 74.0505 61.757 73.8348 61.8288 73.6149C62.0049 73.5431 62.1715 73.45 62.325 73.3377C62.6041 73.1654 62.9053 73.032 63.2205 72.9412C63.6334 72.8085 64.0348 72.6426 64.4209 72.445C64.696 72.3066 64.9827 72.1925 65.2776 72.104C65.5868 72.002 65.8835 71.8652 66.162 71.6964C66.4783 71.5426 66.7676 71.3385 67.0186 71.092V71.1364C67.4151 70.7122 67.6507 70.4599 67.7311 70.3601C68.3632 69.5839 68.7874 68.4555 69.0036 66.9862C69.1221 65.9136 69.1822 64.8354 69.1838 63.7564C69.1838 63.5124 69.2116 63.0771 69.2476 62.4561C69.2836 61.8351 69.3114 61.4082 69.3114 61.1836C69.3114 60.959 69.292 60.8315 69.2559 60.8038C69.2199 60.7761 69.1838 60.7982 69.1478 60.862Z" fill="#6DC285"/>
<path d="M81.7852 62.2113C81.2145 63.2789 80.7081 64.3797 80.2687 65.5077C80.1439 65.8043 80.0801 66.8162 80.0718 68.5378C80.0635 70.2595 80.0441 71.6983 80.0164 72.8433C80.0041 73.7826 79.8898 74.7178 79.6754 75.6323C79.2765 76.9318 78.4574 78.062 77.3466 78.8455C76.2412 79.6324 74.9135 80.0461 73.5568 80.0265C71.4886 80.0265 70.4536 79.1329 70.4517 77.3457C70.4517 76.4252 71.0062 75.0806 72.0846 73.3202C72.2781 73.0517 72.4105 72.7442 72.4728 72.4192C72.4762 72.385 72.4704 72.3506 72.4561 72.3194C72.4007 72.2667 72.1484 72.519 71.6965 73.0956C70.12 75.1971 69.3289 77.3475 69.3234 79.5469C69.3234 81.7648 70.5432 82.8738 72.969 82.9403C75.3948 83.0068 77.463 81.5957 79.1874 78.718C80.4156 76.6886 81.0727 74.6648 81.1725 72.6631C81.2797 69.9111 81.3942 67.3485 81.5162 64.9754C81.5415 64.5621 81.599 64.1515 81.6881 63.7472C81.7962 63.2676 81.8683 62.8794 81.9044 62.5911C81.9404 62.3028 81.9044 62.1669 81.7852 62.2113Z" fill="#6DC285"/>
<path d="M84.754 64.8758C84.6819 64.9285 84.4934 65.3998 84.1995 66.2842C83.9056 67.1685 83.6672 67.9171 83.5064 68.5298L83.487 70.3346C83.4214 72.0433 83.1892 73.7416 82.7939 75.4052C82.7745 75.5134 82.8105 75.5854 82.8909 75.6132C83.1543 75.5965 83.6062 74.6761 84.2633 72.8408C84.5489 71.9876 84.7013 71.0956 84.7152 70.196L84.815 67.626C84.8316 66.6141 84.8593 65.7491 84.8954 65.0255C84.8843 64.8758 84.8371 64.8203 84.754 64.8758Z" fill="#6DC285"/>
<path d="M94.3105 66.4171C94.2329 66.4094 94.1553 66.4322 94.0942 66.4808C93.7577 66.77 93.3292 66.9302 92.8855 66.9327C92.4153 66.8979 91.9542 66.7845 91.5215 66.5973C91.1116 66.4187 90.6769 66.3037 90.2323 66.2563C90.0228 66.2656 89.8182 66.3224 89.6338 66.4222C89.4494 66.5221 89.29 66.6626 89.1677 66.8329C89.0957 66.9244 88.9404 67.1767 88.6881 67.5648C88.5115 67.8087 88.3688 68.0755 88.264 68.3577C88.2362 68.4853 88.2834 68.5574 88.3915 68.5657L88.9598 68.0777C89.3757 67.7811 89.6363 67.6286 89.7638 67.6286C90.1487 67.643 90.5264 67.7374 90.8728 67.9058C91.2639 68.0715 91.6412 68.268 92.0011 68.4936C91.7571 69.0481 91.053 69.7827 89.8886 70.7115C89.8807 70.7175 89.8741 70.7251 89.8692 70.7337C89.8284 70.3257 89.6957 69.9324 89.481 69.5831C89.3833 69.3927 89.2363 69.2319 89.0555 69.1173C88.8746 69.0027 88.6664 68.9386 88.4525 68.9316C88.0477 68.9316 87.6208 69.3392 87.1716 70.1321C86.7225 70.925 86.4952 71.5404 86.4952 71.9646C86.4952 72.5191 86.9194 72.8684 87.7843 73.0042C88.0491 73.057 88.3239 73.0148 88.5606 72.885C88.5606 73.5532 87.5598 74.4819 85.5748 75.6574C85.0203 75.954 84.5989 76.2119 84.2939 76.4059C83.989 76.6 83.842 76.722 83.8614 76.7497C83.8808 76.7774 83.9696 76.8024 84.122 76.8024C84.4473 76.8301 85.4223 76.5529 87.0469 75.9707C87.9756 75.674 88.7685 74.7342 89.4367 73.1539C89.5032 73.0015 89.5587 72.8545 89.6113 72.7048L89.8082 72.4276L93.1184 68.8235C93.2543 68.6427 93.4514 68.5176 93.6728 68.4714C93.8711 68.1879 94.0288 67.8781 94.1414 67.551C94.2769 67.2588 94.3702 66.9489 94.4186 66.6306C94.4048 66.5086 94.3687 66.4365 94.3105 66.4171Z" fill="#6DC285"/>
<path d="M96.9277 65.1889C96.8556 65.2415 96.6671 65.7128 96.3732 66.5972C96.0793 67.4816 95.8409 68.2302 95.6801 68.8428L95.6607 70.6477C95.5951 72.3564 95.3629 74.0546 94.9676 75.7183C94.9482 75.8292 94.9843 75.9013 95.0647 75.9262C95.3419 75.9096 95.7799 74.9892 96.4508 73.1539C96.7362 72.3016 96.8887 71.4105 96.9027 70.5118L97.0025 67.9391C97.0192 66.9271 97.0469 66.0622 97.0829 65.3386C97.0552 65.1889 97.0109 65.1445 96.9277 65.1889Z" fill="#6DC285"/>
<path d="M108.123 69.1172C108.439 69.35 108.678 69.5413 108.847 69.6716C109.08 69.6716 109.343 69.411 109.623 68.8787C109.709 68.7007 109.779 68.5151 109.831 68.3243C109.96 68.4741 110.108 68.6065 110.272 68.7179C110.588 68.9508 110.826 69.1421 110.976 69.2724C111.209 69.2724 111.464 69.0118 111.752 68.4795C111.939 68.1629 112.03 67.7988 112.013 67.4316C111.968 67.2128 111.861 67.0116 111.705 66.8521C111.451 66.5911 111.173 66.3552 110.873 66.1479C110.616 66.5246 110.392 66.9236 110.205 67.3401C110.058 67.6339 109.959 67.8502 109.889 67.9999C109.891 67.9355 109.885 67.8712 109.87 67.8086C109.833 67.5943 109.737 67.3945 109.593 67.2319C109.341 66.9652 109.062 66.7255 108.761 66.5167C108.502 66.8993 108.273 67.3005 108.073 67.7171C107.796 68.2411 107.669 68.5488 107.649 68.6015C107.63 68.6542 107.799 68.8732 108.123 69.1172Z" fill="#6DC285"/>
<path d="M123.673 75.1692C123.421 74.9041 123.142 74.6654 122.842 74.4567C122.588 74.8359 122.359 75.2314 122.157 75.6405C121.996 75.9329 121.857 76.2369 121.741 76.5499C121.741 76.633 121.905 76.7855 122.221 77.0295C122.537 77.2734 122.789 77.4537 122.953 77.584C123.177 77.584 123.429 77.3067 123.701 76.7883C123.9 76.4701 123.997 76.0986 123.978 75.7237C123.924 75.5167 123.819 75.3262 123.673 75.1692Z" fill="#6DC285"/>
<path d="M128.772 58.3689C128.72 58.1504 128.614 57.9483 128.464 57.7812C128.21 57.5205 127.932 57.2847 127.632 57.077C127.377 57.4568 127.151 57.8553 126.956 58.2691C126.806 58.5741 126.704 58.7931 126.637 58.9428C126.644 58.8746 126.644 58.8059 126.637 58.7377C126.58 58.5267 126.479 58.3302 126.341 58.161C126.091 57.8926 125.812 57.6535 125.509 57.4485C125.254 57.8329 125.025 58.2339 124.824 58.649C124.667 58.9346 124.528 59.23 124.408 59.5333C124.408 59.6331 124.572 59.7939 124.888 60.0379C125.204 60.2819 125.442 60.4621 125.617 60.5924C125.844 60.5924 126.105 60.329 126.393 59.7967C126.474 59.6178 126.54 59.4323 126.59 59.2422C126.721 59.3948 126.87 59.5307 127.034 59.647C127.279 59.818 127.514 60.0031 127.738 60.2015C127.973 60.2015 128.234 59.9381 128.514 59.4058C128.697 59.0917 128.786 58.732 128.772 58.3689Z" fill="#6DC285"/>
<path d="M125.83 57.5204C126.135 57.7533 126.385 57.9446 126.543 58.0749C126.776 58.0749 127.02 57.7977 127.3 57.2792C127.494 56.9591 127.591 56.589 127.577 56.2146C127.53 56.006 127.426 55.8142 127.277 55.6602C127.028 55.3868 126.749 55.1422 126.446 54.931C126.184 55.3138 125.951 55.715 125.747 56.1315C125.582 56.4116 125.445 56.7079 125.34 57.0158C125.351 57.1129 125.514 57.2848 125.83 57.5204Z" fill="#6DC285"/>
<path d="M125.559 66.0399C125.334 66.453 125.115 66.6609 124.927 66.6693C124.322 66.6693 123.97 66.3643 123.862 65.7322C123.818 65.4325 123.845 65.1265 123.942 64.8395C123.947 64.7954 123.934 64.7513 123.907 64.7159C123.881 64.6805 123.842 64.6563 123.798 64.6482C123.61 64.5678 123.33 64.9254 122.966 65.7239C122.625 66.4023 122.436 67.1468 122.412 67.9057C122.429 68.1789 122.49 68.4476 122.592 68.7014C122.575 68.9027 122.481 69.0898 122.332 69.2254C122.263 69.3057 122.178 69.3706 122.082 69.4155C121.987 69.4604 121.883 69.4845 121.777 69.486C121.586 69.4839 121.395 69.4597 121.209 69.4139V69.4721C120.943 69.4549 120.681 69.5336 120.469 69.6939C120.146 69.9272 119.86 70.2075 119.62 70.5256C119.388 70.8291 119.125 71.1078 118.836 71.3573C117.824 72.0976 116.271 72.6021 114.17 72.8821C112.19 73.1551 110.194 73.2968 108.195 73.3063C104.216 73.3063 101.987 72.8757 101.508 72.0144C101.386 71.7414 101.302 71.4533 101.256 71.1577C101.201 70.8805 101.12 70.7419 100.993 70.7696C100.865 70.7973 100.788 71.1494 100.74 71.8342C100.693 72.519 100.668 73.0984 100.668 73.5946C100.668 75.0113 101.608 75.868 103.477 76.1674C104.658 76.2759 105.845 76.312 107.031 76.2755C108.653 76.2301 110.271 76.0913 111.877 75.8597C113.665 75.6157 115.018 75.3052 115.919 74.9309C116.683 74.6488 117.39 74.2298 118.004 73.6944C118.433 73.3053 118.807 72.8584 119.113 72.3665C119.709 71.4655 120.313 71.0496 120.909 71.1134L121.261 71.1411L121.292 71.0801C121.688 71.0801 122.215 70.6033 122.875 69.6412C122.933 69.5612 123.012 69.4982 123.102 69.4587C123.193 69.4192 123.292 69.4047 123.391 69.4167L123.859 69.4804C124.391 69.4444 124.835 69.0369 125.187 68.2717C125.5 67.694 125.676 67.0516 125.7 66.3948C125.703 66.1564 125.658 66.0399 125.559 66.0399Z" fill="#6DC285"/>
<path d="M140.929 65.2441C140.83 65.2801 140.522 65.8207 139.99 66.877C139.708 67.5169 139.541 68.2007 139.493 68.8981L139.441 70.9662C139.449 71.7797 139.216 72.5773 138.772 73.259C137.392 75.3882 135.515 76.4528 133.142 76.4528C130.868 76.425 129.76 75.4242 129.832 73.4392C129.856 72.5465 130.4 71.0125 131.465 68.8371C131.545 68.6953 131.597 68.5389 131.617 68.3769C131.653 68.1967 131.617 68.0996 131.537 68.0608C131.456 68.022 131.309 68.1856 131.121 68.5127C129.496 71.2851 128.684 73.6102 128.684 75.488C128.684 76.8742 129.036 77.8861 129.732 78.5015C130.44 79.1308 131.357 79.4747 132.305 79.4663C133.333 79.4882 134.351 79.2589 135.271 78.7982C137.428 77.6172 138.978 75.6081 139.92 72.7711C140.028 72.4273 140.181 71.7702 140.397 70.7944C140.596 69.8614 140.719 68.9138 140.766 67.961C140.812 67.1441 140.905 66.3305 141.043 65.5241C141.062 65.3078 141.026 65.2164 140.929 65.2441Z" fill="#6DC285"/>
<path d="M134.223 71.6428C134.631 71.9394 134.936 72.1973 135.135 72.3553C135.443 72.3553 135.756 72.0115 136.1 71.3351C136.388 70.7806 136.497 70.3361 136.424 70.0015C136.374 69.7322 136.246 69.4836 136.056 69.2863C135.737 68.956 135.39 68.6545 135.019 68.3853C134.691 68.869 134.398 69.3758 134.143 69.9017C133.94 70.2575 133.765 70.6282 133.619 71.0107C133.619 71.1271 133.827 71.3461 134.223 71.6428Z" fill="#6DC285"/>
<path d="M144.841 71.5651C144.597 72.1417 144.389 72.6463 144.226 73.0788C143.425 73.0788 143.017 72.4578 143.017 71.2213V70.7334C143.017 70.7334 143.053 68.9674 143.261 67.3123C143.486 65.5989 143.649 64.4262 143.777 63.7941C143.829 63.5502 143.838 63.4143 143.793 63.3783C143.788 63.3703 143.78 63.3637 143.772 63.3592C143.763 63.3547 143.753 63.3524 143.744 63.3524C143.734 63.3524 143.724 63.3547 143.715 63.3592C143.707 63.3637 143.699 63.3703 143.694 63.3783C143.246 64.2738 142.864 65.2003 142.549 66.1506C142.016 69.5329 141.739 71.8885 141.717 73.2174C141.695 73.7525 142.086 75.0222 142.421 75.4076C142.544 75.5822 142.705 75.7261 142.893 75.828C143.08 75.93 143.289 75.9872 143.502 75.9953C144.155 75.9953 144.675 75.6164 145.063 74.8586C145.44 74.1554 145.641 73.3719 145.651 72.5742C145.59 72.0059 145.318 71.6621 144.841 71.5651Z" fill="#6DC285"/>
<path d="M150.66 63.3148C150.405 63.0527 150.126 62.8133 149.829 62.5995C149.571 62.9832 149.342 63.3854 149.144 63.8028C148.987 64.0896 148.845 64.3849 148.72 64.6871C148.72 64.7869 148.881 64.9505 149.205 65.1945C149.529 65.4385 149.759 65.6187 149.929 65.749C150.161 65.749 150.416 65.4884 150.685 64.9561C150.875 64.6343 150.966 64.2644 150.949 63.8915C150.903 63.6781 150.803 63.4798 150.66 63.3148Z" fill="#6DC285"/>
<path d="M150.1 68.4133C149.992 68.3939 149.848 68.6905 149.668 69.27C149.163 70.9334 148.803 71.9592 148.559 72.339C148.019 73.3284 147.26 74.1818 146.341 74.8341C145.34 75.5716 144.816 76.0235 144.789 76.1787C144.761 76.334 144.808 76.4116 144.96 76.395C145.448 76.395 146.241 76.1593 147.334 75.6825C147.864 75.4792 148.319 75.1159 148.634 74.6428C148.999 74.006 149.279 73.3236 149.466 72.6134C149.998 70.609 150.25 69.2866 150.239 68.66C150.253 68.5159 150.209 68.4216 150.1 68.4133Z" fill="#6DC285"/>
<path d="M159.402 69.7247C159.338 69.7247 159.258 69.8577 159.158 70.1294C158.958 70.7532 158.734 71.0582 158.509 71.0499C158.369 71.0558 158.23 71.0437 158.093 71.0138C158.009 71.3523 157.849 71.6672 157.625 71.9342C157.531 72.025 157.418 72.0927 157.294 72.1317C157.17 72.1707 157.038 72.18 156.909 72.1588C156.684 72.1296 156.455 72.1389 156.233 72.1865C155.936 72.3522 155.665 72.5626 155.432 72.8103C155.006 73.19 154.449 73.3889 153.879 73.3648C153.239 73.3648 152.77 73.0293 152.427 72.3612C152.278 71.8275 152.223 71.2723 152.263 70.7199C152.263 70.7199 152.299 68.9539 152.507 67.2988C152.731 65.5855 152.895 64.4128 153.023 63.7807C153.075 63.5367 153.084 63.4009 153.039 63.3649C153.034 63.3568 153.026 63.3503 153.017 63.3458C153.009 63.3413 152.999 63.3389 152.989 63.3389C152.98 63.3389 152.97 63.3413 152.961 63.3458C152.953 63.3503 152.945 63.3568 152.939 63.3649C152.492 64.2604 152.109 65.1869 151.794 66.1372C151.262 69.5195 150.985 71.8751 150.963 73.204C150.996 73.204 150.924 75.9763 152.928 75.9763C153.533 75.9763 154.093 75.652 154.617 75.0032C154.938 74.5621 155.317 74.1667 155.745 73.8278C155.85 73.7618 155.968 73.719 156.091 73.7022C156.214 73.6855 156.339 73.6952 156.458 73.7307C156.577 73.7649 156.703 73.765 156.823 73.7312C156.942 73.6975 157.05 73.631 157.134 73.5394C157.383 73.2912 157.598 73.0116 157.774 72.7077C158.254 72.7077 158.678 72.3667 159.047 71.6709C159.299 71.231 159.453 70.7422 159.499 70.2375C159.507 69.9021 159.471 69.7247 159.402 69.7247Z" fill="#6DC285"/>
<path fill-rule="evenodd" clip-rule="evenodd" d="M105.4 1.24948C104.087 2.07988 102.976 1.60427 103.092 0.257118C103.133 -0.0385351 103.216 -0.064244 103.338 0.179991C103.818 0.892129 104.467 1.20835 105.276 0.480786C105.465 0.285398 105.423 0.269972 105.602 0.480786C106.292 1.0798 107.178 1.10037 107.618 0.138857C107.711 -0.0462478 107.824 -0.041106 107.842 0.123431C107.933 1.6454 106.679 2.13901 105.4 1.24948ZM108.944 2.29327C112.533 5.09297 113.257 9.23983 110.854 13.2016C110.556 13.5949 110.66 13.8366 111.252 13.2659C115.322 9.20898 113.443 3.49645 108.987 2.01818C108.491 1.82022 108.53 1.99761 108.944 2.29327ZM105.354 15.919C105.423 16.027 105.436 16.027 105.506 15.919L106.08 14.9524C107.576 15.1298 108.993 15.1169 110.076 14.6696C110.205 14.5976 110.213 14.4922 109.975 14.487C108.938 14.4921 107.908 14.3082 106.938 13.9446C111.412 10.9032 111.681 5.31407 108.029 2.31383C107.77 2.08245 107.739 2.18272 107.987 2.59663C110.143 5.7974 109.468 10.1088 106.315 12.6231L106.509 2.67119L105.429 1.66854L104.351 2.68147L104.545 12.6334C101.391 10.1165 100.717 5.80511 102.87 2.60692C103.128 2.193 103.095 2.09274 102.828 2.32412C99.2101 5.40919 99.4479 10.9058 103.922 13.9523C102.951 14.3157 101.922 14.4995 100.885 14.4947C100.647 14.4947 100.652 14.6053 100.784 14.6773C101.867 15.1246 103.283 15.1375 104.777 14.9601L105.354 15.9267V15.919ZM102.053 2.29327C98.4011 5.15725 97.7498 9.23983 100.143 13.2016C100.44 13.5949 100.337 13.8366 99.7451 13.2659C95.6822 9.20898 97.5534 3.49902 102.009 2.01818C102.505 1.82022 102.467 1.99761 102.053 2.29327Z" fill="#6DC285"/>
<path fill-rule="evenodd" clip-rule="evenodd" d="M119.654 27.0664C119.583 27.5502 119.477 28.0282 119.336 28.4962C119.252 28.7966 119.156 29.097 119.066 29.3734C118.936 29.8578 118.734 30.3197 118.466 30.7431C118.001 31.2134 117.428 31.5621 116.798 31.7584C116.603 31.8362 116.402 31.8985 116.197 31.9446C116.119 31.9446 115.999 31.9446 115.957 31.9026C115.735 31.5962 116.978 30.7852 117.158 30.635C117.482 30.4113 117.786 30.1579 118.064 29.878C118.281 29.6524 118.463 29.3951 118.604 29.115C118.743 28.8138 118.865 28.505 118.97 28.1899C119.132 27.7273 119.174 27.493 119.33 26.9883C119.366 26.8982 119.414 26.7841 119.534 26.7841C119.654 26.7841 119.672 26.9463 119.654 27.0664Z" fill="#6DC285"/>
<path fill-rule="evenodd" clip-rule="evenodd" d="M99.7614 23.9964C99.5563 23.9392 99.3557 23.8669 99.1613 23.7801C99.0953 23.7381 99.0953 23.672 99.1613 23.5158L99.7134 22.122C99.7974 21.9238 100.055 21.8397 100.373 21.8937C100.691 21.9478 101.52 22.2542 101.52 22.6267C101.468 23.1456 101.258 23.6362 100.92 24.0325C100.721 24.2307 100.133 24.6332 99.7194 24.9576C99.3047 25.2883 98.9174 25.652 98.5612 26.045C98.441 26.1847 98.3345 26.3355 98.2432 26.4956C98.0691 26.826 98.1531 26.9702 98.4832 27.1324C98.8132 27.2946 99.3413 27.4448 99.3413 28.0876C99.3282 28.7674 99.215 29.4415 99.0053 30.0882C98.6854 31.06 98.1358 31.9401 97.403 32.6535C96.6771 33.3593 95.7141 33.7685 94.7027 33.8009C94.36 33.8172 94.0183 33.7522 93.7055 33.6113C93.3927 33.4704 93.1175 33.2575 92.9024 32.9899C92.5852 32.5252 92.3785 31.9938 92.2984 31.4366C92.2183 30.8794 92.2669 30.3113 92.4404 29.7758C92.6893 28.8322 93.0563 27.9239 93.5325 27.0724L94.1026 26.039C94.2062 25.8318 94.3224 25.6312 94.4506 25.4383C94.4678 25.4126 94.4934 25.3937 94.523 25.3849C94.5526 25.3761 94.5843 25.378 94.6127 25.3902C94.6787 25.4262 94.6127 25.6065 94.6127 25.6786C94.4386 26.1051 94.2406 26.5136 94.0126 26.9162C93.7296 27.4508 93.4849 28.0049 93.2805 28.5743C92.9744 29.4634 92.7644 30.713 93.6645 31.3498C94.1027 31.6208 94.615 31.7469 95.1287 31.7103C96.4489 31.7103 98.0091 31.1095 98.5852 29.7938C98.6315 29.6959 98.658 29.5897 98.6632 29.4814C98.6632 29.139 97.8951 29.0609 97.4631 28.6824C97.031 28.3039 97.181 27.559 97.355 27.0964C97.5199 26.6582 97.7354 26.2409 97.9971 25.8528C98.498 25.1564 99.0916 24.5319 99.7614 23.9964Z" fill="#6DC285"/>
<path fill-rule="evenodd" clip-rule="evenodd" d="M127.107 26.8501C126.717 27.4989 126.423 28.1598 126.069 28.8507C125.979 29.0249 125.763 29.091 125.799 28.8507C125.835 28.6104 126.003 28.1718 126.063 27.8834C126.119 27.6943 126.103 27.4913 126.019 27.313C125.935 27.1347 125.788 26.9935 125.607 26.9162C125.439 26.8444 125.252 26.8284 125.074 26.8706C124.895 26.9127 124.735 27.0108 124.617 27.1505C124.485 27.2852 124.368 27.4344 124.269 27.5951C123.921 28.1117 123.393 28.7966 123.237 29.0369C123.081 29.2772 122.829 29.902 122.637 30.2384C122.51 30.4913 122.331 30.7143 122.112 30.8925C121.893 31.0707 121.638 31.2 121.364 31.2718C120.962 31.4219 120.104 31.7283 119.672 31.8305C119.607 31.8484 119.539 31.8484 119.474 31.8305C119.456 31.8225 119.439 31.8104 119.425 31.7952C119.412 31.78 119.402 31.762 119.396 31.7425C119.391 31.723 119.389 31.7024 119.392 31.6823C119.395 31.6622 119.403 31.6431 119.414 31.6262C119.45 31.5703 119.5 31.5247 119.558 31.494C120.158 31.1456 120.758 30.8212 121.286 30.5088C121.782 30.2437 122.197 29.8492 122.487 29.3673C121.677 29.3673 121.016 28.9648 121.395 28.0997L121.749 27.2827C121.809 27.1479 121.886 27.0209 121.977 26.9042C122.451 26.3635 123.327 27.0003 123.405 27.6371C123.405 27.7212 123.453 27.7693 123.525 27.7152C123.908 27.2898 124.238 26.8198 124.509 26.3154C124.689 26.0288 124.907 25.768 125.157 25.5404C125.307 25.4226 125.482 25.3421 125.669 25.3056C125.856 25.2691 126.049 25.2776 126.232 25.3304C126.414 25.3833 126.582 25.4789 126.721 25.6094C126.86 25.7399 126.965 25.9016 127.029 26.0811C127.1 25.9563 127.178 25.8359 127.263 25.7207C127.491 25.4083 127.863 24.8436 128.295 24.7955C128.38 24.5866 128.482 24.3856 128.601 24.1947C128.746 23.9689 128.924 23.7664 129.13 23.594C129.373 23.3918 129.637 23.2147 129.916 23.0653C130.233 22.8808 130.562 22.7163 130.9 22.5726C130.703 22.5172 130.502 22.4751 130.3 22.4465C130.039 22.3877 129.774 22.3476 129.508 22.3263C129.365 22.3122 129.221 22.346 129.1 22.4225C129.007 22.4982 128.925 22.585 128.854 22.6808C128.795 22.7597 128.731 22.8341 128.661 22.9031C128.565 22.9932 128.439 22.9872 128.445 22.819C128.53 22.5144 128.689 22.2357 128.908 22.0079C129.03 21.8479 129.169 21.7009 129.322 21.5694C129.399 21.5054 129.483 21.451 129.574 21.4072C129.863 21.3076 130.171 21.2787 130.474 21.3231C130.744 21.3231 131.074 21.3891 131.434 21.4372C131.705 21.4781 131.973 21.5343 132.238 21.6054C132.43 21.6655 132.544 21.8037 132.484 21.9839C132.458 22.0632 132.423 22.1396 132.382 22.2122C132.343 22.2916 132.293 22.3645 132.232 22.4285C132.154 22.5056 132.065 22.5705 131.968 22.6207C131.644 22.813 131.152 23.0412 130.726 23.2215C130.254 23.4241 129.8 23.6673 129.37 23.9484C129.178 24.0986 129.04 24.2548 129.214 24.4831C129.351 24.627 129.499 24.7596 129.658 24.8796C129.796 25.0058 129.85 25.0959 129.856 25.186C129.839 25.3718 129.766 25.548 129.646 25.6906C129.557 25.8272 129.453 25.9523 129.334 26.0631C129.295 26.1104 129.242 26.1441 129.182 26.1592C129.123 26.1743 129.06 26.1701 129.004 26.1472C128.866 26.1052 128.673 26.0211 128.517 25.961C128.361 25.9009 128.283 25.8588 128.175 25.8288C127.707 25.7447 127.305 26.5497 127.107 26.8501Z" fill="#6DC285"/>
<path fill-rule="evenodd" clip-rule="evenodd" d="M103.77 29.7037C103.647 30.0797 103.487 30.4421 103.29 30.7851C102.99 31.2898 102.198 32.1609 101.628 32.1729C101.34 32.1729 100.884 31.7283 100.644 31.434C100.587 31.3748 100.556 31.2963 100.556 31.2147C100.556 31.1331 100.587 31.0546 100.644 30.9954C100.644 30.9954 100.734 30.9473 100.776 30.8933C101.018 30.5482 101.176 30.1511 101.238 29.7338C101.362 29.0719 101.431 28.4007 101.442 27.7272C101.465 26.928 101.621 26.1382 101.904 25.3902C102.084 24.9757 102.168 24.7234 102.36 24.3089C102.384 24.2271 102.425 24.1513 102.48 24.0866C102.57 24.0085 102.642 24.0866 102.642 24.2007C102.638 24.3186 102.62 24.4356 102.588 24.5492C102.504 24.9457 102.402 25.4443 102.336 25.9429C102.258 27.0898 102.113 28.2311 101.904 29.3613C101.759 29.9473 101.489 30.4947 101.112 30.9654C101.389 31.0123 101.674 30.998 101.946 30.9232C102.217 30.8485 102.469 30.7153 102.684 30.5328C103.003 30.2132 103.23 29.8123 103.338 29.3733C103.392 29.1484 103.426 28.9193 103.44 28.6885C103.476 28.0877 103.476 27.4869 103.506 26.8861C103.507 26.0375 103.641 25.1943 103.902 24.387C104.022 24.0866 104.118 23.7862 104.232 23.4918C104.232 23.4137 104.322 23.2876 104.424 23.3116C104.526 23.3356 104.49 23.4858 104.49 23.5339C104.49 23.7141 104.454 23.8643 104.43 24.0806C104.376 24.5251 104.292 25.0899 104.262 25.5404C104.195 26.0368 104.215 26.541 104.322 27.0303C104.38 27.2954 104.527 27.5329 104.737 27.7042C104.947 27.8754 105.209 27.9704 105.48 27.9735C105.73 28.0072 105.984 27.9685 106.213 27.8621C106.442 27.7556 106.635 27.5858 106.77 27.3728C106.841 27.2768 106.924 27.19 107.016 27.1144C107.068 27.0742 107.131 27.053 107.196 27.0544C107.311 27.0709 107.423 27.1053 107.527 27.1565C107.589 27.1745 107.656 27.1745 107.719 27.1565C107.86 27.1257 107.986 27.0446 108.073 26.9282C108.244 26.7188 108.382 26.4836 108.481 26.2313C108.481 26.1712 108.535 26.1412 108.571 26.1352C108.607 26.1292 108.607 26.1352 108.661 26.1772C108.717 26.1941 108.778 26.1941 108.835 26.1772C109.189 26.1232 109.213 25.3362 109.435 25.1019C109.507 25.0238 109.591 25.0238 109.627 25.1019C109.637 25.1514 109.637 25.2025 109.627 25.2521C109.582 25.7192 109.45 26.1738 109.237 26.5918C109.159 26.7815 109.04 26.9516 108.888 27.0897C108.737 27.2279 108.557 27.3307 108.361 27.3908C108.109 27.7573 107.761 28.298 107.263 28.358C106.938 28.4001 106.782 28.2799 106.53 28.4962C106.33 28.7011 106.165 28.9388 106.044 29.1991C105.955 29.3679 105.833 29.5168 105.684 29.6366C105.535 29.7564 105.364 29.8447 105.18 29.896C104.94 29.9524 104.689 29.9335 104.46 29.8419C104.225 29.7537 104.018 29.6044 103.86 29.4094C103.83 29.5115 103.8 29.5956 103.77 29.7037Z" fill="#6DC285"/>
<path fill-rule="evenodd" clip-rule="evenodd" d="M80.1086 25.3905C80.1086 25.4326 80.0786 25.4807 80.0666 25.5167C80.0006 25.6849 79.9346 25.8471 79.8626 26.0153C79.6023 26.5756 79.4012 27.1615 79.2625 27.7636C79.2039 28.0337 79.1817 28.3106 79.1965 28.5866C79.2053 28.8364 79.2716 29.0808 79.3903 29.3007C79.5089 29.5205 79.6767 29.71 79.8806 29.8542C81.0088 30.6533 82.797 30.3349 83.8772 29.632C84.5122 29.2116 85.0156 28.6202 85.3294 27.9258C85.5044 27.53 85.5983 27.103 85.6054 26.6702C85.6054 26.0214 85.5334 25.4687 85.6054 24.7958C85.6532 24.4683 85.7398 24.1476 85.8634 23.8406C85.9714 23.5582 86.0915 23.2398 86.2115 22.9454C86.253 22.8374 86.3032 22.733 86.3615 22.633C86.3698 22.6204 86.382 22.6106 86.3962 22.6053C86.4104 22.5999 86.4259 22.5992 86.4405 22.6032C86.4552 22.6072 86.4682 22.6157 86.4777 22.6275C86.4872 22.6394 86.4927 22.6539 86.4935 22.6691C86.4993 22.7109 86.4993 22.7534 86.4935 22.7952C86.4935 22.9334 86.4575 23.0716 86.4455 23.2158C86.3915 23.9247 86.3975 24.6396 86.3555 25.3545C86.2155 27.4614 85.3698 29.4595 83.9552 31.0257C83.6893 31.3093 83.3865 31.5558 83.055 31.7587C82.0409 32.3594 80.4507 32.5817 79.4545 31.8127C78.5904 31.1399 78.3204 29.8542 78.6144 28.4965C78.7625 27.9049 78.9633 27.3279 79.2145 26.7723C79.3765 26.3938 79.5506 26.0033 79.7426 25.6248C79.8086 25.4927 79.8686 25.3545 79.9406 25.2343C79.9593 25.2057 79.9815 25.1795 80.0066 25.1563C80.0141 25.1525 80.0223 25.1506 80.0306 25.1506C80.039 25.1506 80.0472 25.1525 80.0546 25.1563C80.0691 25.154 80.0839 25.1556 80.0976 25.1609C80.1113 25.1661 80.1234 25.1749 80.1326 25.1863C80.1474 25.2194 80.155 25.2552 80.155 25.2914C80.155 25.3276 80.1474 25.3635 80.1326 25.3966L80.1086 25.3905ZM83.5591 26.4119C83.6038 26.2814 83.6129 26.1413 83.5855 26.0061C83.5581 25.8709 83.4951 25.7455 83.4031 25.6429C83.1874 25.4195 82.9384 25.2311 82.665 25.0842C82.497 24.982 82.485 25.0481 82.3889 25.2223C82.1249 25.7029 81.8489 26.1415 81.6208 26.55C81.5488 26.6882 81.4948 26.7663 81.6208 26.8564C81.8748 26.9997 82.1212 27.1561 82.3589 27.325C82.432 27.3989 82.5199 27.4563 82.617 27.4932C82.683 27.4932 82.761 27.4932 82.887 27.3671C83.0522 27.2308 83.1941 27.0685 83.3071 26.8865C83.4077 26.7377 83.4922 26.5786 83.5591 26.4119Z" fill="#6DC285"/>
<path fill-rule="evenodd" clip-rule="evenodd" d="M117.818 23.2576C117.782 23.5821 117.689 23.8975 117.542 24.1888C117.404 24.4652 117.176 24.7896 117.056 24.7896C116.936 24.7896 116.99 24.7475 116.96 24.7115C116.93 24.6755 116.852 24.6574 116.774 24.6694C116.208 24.8581 115.696 25.1794 115.279 25.6066C114.924 25.8901 114.671 26.2827 114.559 26.7241C114.559 26.8322 114.727 26.9283 114.919 27.0245C115.09 27.1038 115.256 27.1921 115.417 27.2888C115.553 27.3744 115.667 27.4919 115.747 27.6312C115.828 27.7704 115.873 27.9271 115.879 28.0878C115.893 28.5667 115.845 29.0453 115.735 29.5116C115.534 30.405 115.158 31.2501 114.631 31.9988C114.243 32.5425 113.741 32.9955 113.161 33.3265C112.766 33.5712 112.318 33.7184 111.855 33.756C111.392 33.7936 110.926 33.7205 110.497 33.5428C110.263 33.4096 110.058 33.2297 109.897 33.0141C109.54 32.4987 109.35 31.8866 109.351 31.2599C109.326 30.3563 109.477 29.4567 109.795 28.6105C110.041 27.9119 110.348 27.2365 110.713 26.5919C110.851 26.3516 110.989 26.1113 111.133 25.871C111.199 25.7628 111.283 25.5766 111.355 25.4324C111.379 25.3842 111.407 25.3379 111.439 25.2942C111.439 25.2942 111.475 25.2582 111.487 25.2582C111.499 25.2582 111.541 25.5105 111.529 25.5466C111.504 25.6691 111.47 25.7896 111.427 25.907C111.373 26.0452 111.313 26.1834 111.259 26.2915L111.067 26.7C110.821 27.1987 110.545 27.7093 110.329 28.244C110.074 28.8114 109.935 29.4243 109.921 30.0463C109.912 30.278 109.951 30.5091 110.033 30.7257C110.116 30.9424 110.241 31.1404 110.401 31.3079C110.622 31.5154 110.896 31.6587 111.193 31.7224C111.927 31.867 112.688 31.7875 113.377 31.4942C114.112 31.1949 114.722 30.652 115.105 29.9562C115.233 29.7517 115.307 29.5182 115.321 29.2773C115.321 29.1331 114.799 28.9769 114.505 28.8508C114.352 28.807 114.21 28.7306 114.089 28.627C113.968 28.5233 113.87 28.3947 113.803 28.25C113.75 27.9401 113.785 27.6214 113.905 27.3308C114.135 26.5892 114.46 25.8804 114.871 25.2222C115.627 24.0206 116.72 22.9513 117.596 22.9092C117.752 22.9032 117.806 23.0894 117.818 23.2576Z" fill="#6DC285"/>
<path fill-rule="evenodd" clip-rule="evenodd" d="M112.261 19.3166L112.621 18.3373C112.621 18.2472 112.717 17.9829 112.837 18.0009C112.957 18.0189 112.909 18.067 112.891 18.1991C112.873 18.3313 112.861 18.3673 112.849 18.4515C112.837 18.5356 112.795 18.7639 112.777 18.9321C112.657 20.1336 112.705 21.4012 112.489 22.6148C112.407 23.085 112.278 23.5458 112.105 23.9905C112.033 24.1708 111.955 24.345 111.877 24.5192C111.799 24.6934 111.601 24.7475 111.643 24.4591C111.78 23.7871 111.872 23.1068 111.919 22.4225C111.949 21.7196 111.949 20.9567 112.009 20.3739C112.043 20.0114 112.128 19.6555 112.261 19.3166Z" fill="#6DC285"/>
<path fill-rule="evenodd" clip-rule="evenodd" d="M95.5367 19.4364L95.8968 18.4572C95.9268 18.3671 95.9928 18.1027 96.1128 18.1208C96.2328 18.1388 96.1848 18.1868 96.1668 18.319C96.1587 18.404 96.1446 18.4883 96.1248 18.5713C96.0948 18.7215 96.0708 18.8837 96.0528 19.0519C95.9328 20.2535 95.9808 21.5211 95.7648 22.7346C95.6794 23.2061 95.5446 23.6672 95.3627 24.1104C95.2907 24.2906 95.2127 24.4648 95.1347 24.6391C95.0567 24.8133 94.8586 24.8674 94.9066 24.579C95.0416 23.9069 95.1318 23.2265 95.1767 22.5424C95.2067 21.8395 95.2067 21.0765 95.2667 20.4938C95.3098 20.131 95.4006 19.7754 95.5367 19.4364Z" fill="#6DC285"/>
<path fill-rule="evenodd" clip-rule="evenodd" d="M92.5843 25.7326C92.5395 25.9731 92.4773 26.2101 92.3983 26.4415C92.2914 26.8823 92.0862 27.293 91.7982 27.6431C91.5447 27.8782 91.2624 28.0801 90.9581 28.2438C90.6803 28.3701 90.4343 28.5569 90.238 28.7905C90.1086 29.0099 89.9963 29.2388 89.9019 29.4754C89.7399 29.8239 89.6319 30.1603 89.4879 30.5207C89.4071 30.795 89.2603 31.0451 89.0605 31.2494C88.8607 31.4536 88.6139 31.6057 88.3417 31.6922C87.8075 31.8826 87.2507 32.0018 86.6855 32.0467C86.2774 32.0467 86.3254 31.7103 86.5475 31.506C86.9495 31.2086 87.3705 30.9377 87.8076 30.695C88.1981 30.4763 88.5695 30.2251 88.9178 29.944C89.2292 29.6485 89.464 29.2815 89.6019 28.8746C89.7897 28.3637 90.0461 27.8806 90.364 27.4388C90.6231 27.1998 90.9139 26.9977 91.2281 26.838C91.4568 26.7289 91.6722 26.5938 91.8702 26.4355C92.0072 26.2504 92.1201 26.0485 92.2062 25.8348C92.25 25.7386 92.3183 25.6557 92.4043 25.5945C92.4823 25.5524 92.5963 25.5704 92.5843 25.7326Z" fill="#6DC285"/>
<path fill-rule="evenodd" clip-rule="evenodd" d="M88.6659 22.6146L89.0439 21.5813C89.0799 21.4791 89.1519 21.1968 89.2779 21.2208C89.404 21.2448 89.356 21.2869 89.3379 21.4311C89.3199 21.5753 89.3379 21.6113 89.2899 21.7014C89.2419 21.7915 89.2359 22.0318 89.2179 22.2121C89.0859 23.5157 89.1399 24.8374 88.9059 26.1291C88.8169 26.6316 88.6741 27.1231 88.4798 27.5949C88.4018 27.7872 88.3238 27.9734 88.2338 28.1597C88.1438 28.3459 87.9398 28.4 87.9938 28.0936C88.1351 27.3774 88.2313 26.6531 88.2818 25.9248C88.3118 25.1799 88.3178 24.3688 88.3778 23.75C88.424 23.3606 88.5208 22.9789 88.6659 22.6146Z" fill="#6DC285"/>
<path fill-rule="evenodd" clip-rule="evenodd" d="M88.9419 35.8797C88.8099 36.0119 88.7259 36.0239 88.6479 35.9698C88.5716 35.9107 88.5013 35.8443 88.4379 35.7715C88.2727 35.6397 88.1144 35.4993 87.9638 35.351C87.8558 35.2309 87.8498 35.1888 87.9218 35.0506C88.1318 34.6241 88.3899 34.1795 88.6359 33.6809C88.7259 33.5007 88.7379 33.4346 88.8759 33.5427C89.11 33.7057 89.3132 33.9091 89.476 34.1435C89.8901 34.7442 89.35 35.4952 88.9479 35.8917L88.9419 35.8797ZM90.6762 35.6454C91.0782 35.2429 91.6183 34.5159 91.2042 33.8912C91.038 33.6597 90.8354 33.4568 90.6042 33.2904C90.4661 33.1883 90.4541 33.2483 90.3641 33.4346C90.1181 33.9272 89.8601 34.3778 89.65 34.7983C89.578 34.9365 89.584 34.9785 89.692 35.1047C89.8416 35.2523 89.9999 35.3908 90.1661 35.5192C90.2298 35.5936 90.3001 35.6619 90.3761 35.7235C90.4601 35.7836 90.5382 35.7715 90.6762 35.6454Z" fill="#6DC285"/>
<path fill-rule="evenodd" clip-rule="evenodd" d="M129.099 33.2003C128.967 33.3204 128.889 33.3324 128.805 33.2844C128.732 33.2304 128.664 33.17 128.601 33.1041C128.435 32.9824 128.274 32.8521 128.121 32.7136C128.013 32.5995 128.013 32.5635 128.079 32.4373C128.295 32.0468 128.553 31.6323 128.799 31.1757C128.889 31.0015 128.901 30.9474 129.039 31.0435C129.27 31.1869 129.473 31.3699 129.639 31.5842C130.042 32.1609 129.507 32.8278 129.099 33.2003Z" fill="#6DC285"/>
<path d="M107.856 38.4095C107.625 38.8012 107.33 39.151 106.982 39.4445C106.316 39.9969 104.94 40.9577 102.855 42.3271C100.951 43.5969 99.8596 44.3673 99.5824 44.6382C99.4998 44.7239 99.4427 44.7684 99.4046 44.7684C99.3665 44.7684 99.3728 44.7684 99.3728 44.7335C99.3852 44.6546 99.4156 44.5796 99.4617 44.5144C99.6475 44.1985 99.8599 43.8989 100.097 43.6191C100.425 43.1959 101.668 42.2858 103.827 40.8889C106.06 39.4328 107.251 38.6286 107.402 38.4762C107.717 38.1587 107.914 38 107.992 38C108.014 38 108.027 38 108.027 38.0381C108.001 38.1724 107.946 38.2992 107.865 38.4095H107.856ZM98.0649 50.0732V49.3304C98.2641 49.1046 98.3766 48.8155 98.3823 48.5145C98.4173 48.0478 98.4522 47.5621 98.4839 47.1017C98.5913 46.3886 98.8257 45.7004 99.176 45.07C99.2437 44.9472 99.2966 44.8858 99.3347 44.8858C99.3601 44.8858 99.3728 44.9144 99.3728 44.9684C99.378 45.0074 99.378 45.0469 99.3728 45.0858C99.2078 45.9557 99.1019 46.6118 99.0554 47.0541C99.013 47.7483 98.8741 48.4332 98.6427 49.0891C98.5237 49.4551 98.3266 49.791 98.0649 50.0732Z" fill="#6DC285"/>
<path d="M97.4997 50.3749C97.3849 50.4075 97.2772 50.4613 97.1822 50.5336C97.0668 50.6157 96.9345 50.6711 96.7949 50.6955C96.6725 50.7195 96.5539 50.7601 96.4425 50.8162C96.2711 50.8892 96.1251 50.9432 96.0457 50.9717C95.9663 51.0003 95.7282 51.0797 95.4108 51.194V50.559C95.5727 50.489 95.7261 50.4006 95.8679 50.2955C95.959 50.1801 96.0565 50.0698 96.16 49.9654C96.1931 49.969 96.2237 49.9848 96.2457 50.0098C96.2613 50.0284 96.2807 50.0435 96.3026 50.0539C96.3245 50.0643 96.3484 50.0698 96.3727 50.0701C96.4147 50.0686 96.4559 50.0577 96.4933 50.0384C96.6248 49.9871 96.7423 49.9056 96.8362 49.8003C96.8652 49.7506 96.9041 49.7074 96.9505 49.6733H96.9759C96.9949 49.6733 97.0235 49.6924 97.0584 49.7273C97.0835 49.7562 97.1187 49.7744 97.1568 49.7781C97.1824 49.7778 97.2074 49.7713 97.2298 49.759C97.3549 49.7046 97.4641 49.6195 97.5473 49.5114C97.5784 49.4595 97.6158 49.4115 97.6584 49.3685C97.6678 49.3658 97.6777 49.3658 97.687 49.3685C97.706 49.3685 97.7251 49.3685 97.7537 49.4162C97.7725 49.4401 97.7998 49.4559 97.8299 49.4606C97.9062 49.4471 97.9757 49.4079 98.0267 49.3495V50.0828C97.8794 50.2395 97.6897 50.3499 97.4806 50.4003L97.4997 50.3749Z" fill="#6DC285"/>
<path d="M94.7791 51.6704C94.3918 52.4577 94.087 52.9402 93.8648 53.0863C93.3732 53.3413 92.847 53.5231 92.3028 53.626H92.2203C92.1473 53.626 92.1092 53.6006 92.1092 53.5498C92.1092 53.499 92.16 53.4323 92.2552 53.3847C93.0231 52.9932 93.7035 52.45 94.2553 51.7878C94.2635 51.7768 94.268 51.7635 94.268 51.7497C94.268 51.736 94.2635 51.7226 94.2553 51.7116C94.2553 51.6926 94.2299 51.6831 94.214 51.6831C94.2047 51.6803 94.1947 51.6803 94.1854 51.6831C94.0462 51.7568 93.8921 51.798 93.7346 51.8037C93.6528 51.8074 93.5713 51.7922 93.4964 51.7591C93.4215 51.7261 93.3552 51.6762 93.3029 51.6132C93.2056 51.4895 93.1551 51.3355 93.16 51.1783C93.2091 50.8507 93.3167 50.5346 93.4775 50.2449C93.6933 49.7592 93.8838 49.5148 94.0457 49.5148C94.5029 49.5148 94.8077 49.9211 94.9537 50.7307C95.0584 50.7021 95.2108 50.6513 95.4108 50.5846V51.2196C95.1483 51.2885 94.9215 51.454 94.7759 51.6831L94.7791 51.6704Z" fill="#6DC285"/>
<path d="M91.3981 49.8479C91.178 50.8163 90.8411 51.7544 90.3949 52.6416C90.2146 53.0147 89.9413 53.335 89.6012 53.5718C89.2039 53.766 88.7726 53.8813 88.3314 53.9115H88.2298C88.1123 53.9115 88.052 53.8797 88.052 53.8194C88.052 53.7591 88.1218 53.6734 88.2615 53.5845C88.652 53.34 88.9536 53.1368 89.1663 52.9781C89.4855 52.7534 89.7737 52.4876 90.0235 52.1876C90.5377 51.4601 90.9401 50.6597 91.2171 49.813C91.2552 49.7114 91.2997 49.6606 91.3536 49.6606C91.4076 49.6606 91.4203 49.6923 91.4203 49.7622C91.4242 49.7959 91.4242 49.83 91.4203 49.8638L91.3981 49.8479Z" fill="#6DC285"/>
<path d="M94.7884 42.7398C94.7884 42.7715 94.9186 42.8826 95.1852 43.0763C95.3241 43.1916 95.4778 43.2878 95.6424 43.362C95.8233 43.362 96.071 43.0731 96.3884 42.489C96.5645 42.6043 96.7293 42.7361 96.8805 42.8826C97.017 43.0128 97.1218 43.0763 97.198 43.0763C97.2741 43.0763 97.4297 42.9429 97.6392 42.6636C97.8175 42.461 97.9285 42.2081 97.9567 41.9398C97.9443 41.8317 97.9098 41.7275 97.8551 41.6335C97.8005 41.5395 97.727 41.4579 97.6392 41.3937C97.5043 41.2441 97.3212 41.1464 97.1218 41.1175C97.0805 41.1175 96.9757 41.2445 96.8043 41.5016C96.6858 41.6773 96.5683 41.8551 96.4519 42.035C96.3416 41.8738 96.2041 41.7331 96.0456 41.6191C95.921 41.5027 95.7656 41.4245 95.5979 41.3937C95.5471 41.3937 95.4011 41.5969 95.1567 42.0064C94.9991 42.2283 94.875 42.4722 94.7884 42.7302V42.7398ZM95.5884 40.8604C95.5884 40.908 95.6328 40.9588 95.7217 41.0159C95.8106 41.0731 95.8995 41.127 95.9852 41.181C96.071 41.235 96.1598 41.3302 96.2487 41.4001C96.2973 41.4527 96.3621 41.4874 96.4329 41.4985C96.5122 41.4985 96.6392 41.3651 96.8106 41.0985C96.9616 40.8989 97.0549 40.6617 97.0805 40.4127C97.0709 40.3111 97.0406 40.2124 96.9914 40.1229C96.9423 40.0334 96.8754 39.9548 96.7948 39.8921C96.6663 39.7493 96.4903 39.6579 96.2995 39.6349C96.2456 39.6349 96.1122 39.8254 95.9059 40.2064C95.7752 40.4103 95.6686 40.6287 95.5884 40.8572V40.8604Z" fill="#6DC285"/>
<path d="M122.948 50.9462C122.945 51.5192 122.785 52.0805 122.484 52.5684C122.311 52.8807 122.077 53.155 121.795 53.3748C121.556 53.5256 121.299 53.6461 121.03 53.7335C120.768 53.8425 120.489 53.908 120.205 53.9272C120.103 53.9272 120.049 53.8986 120.049 53.8415C120.049 53.7843 120.103 53.724 120.218 53.6605C120.977 53.2726 121.659 52.7498 122.23 52.1176C122.255 52.0932 122.27 52.0603 122.272 52.0256C122.272 51.997 122.253 51.9811 122.214 51.9811C122.175 51.9823 122.137 51.9898 122.1 52.0033C121.981 52.0424 121.857 52.0628 121.732 52.0637C121.643 52.0674 121.555 52.0514 121.473 52.0168C121.391 51.9822 121.318 51.9299 121.259 51.8637C121.141 51.721 121.079 51.5406 121.084 51.3557C121.129 51.0458 121.224 50.7454 121.367 50.4668C121.595 49.9589 121.818 49.7017 122.037 49.7017C122.166 49.7074 122.292 49.7453 122.402 49.8118C122.513 49.8783 122.606 49.9714 122.672 50.0827C122.852 50.334 122.947 50.6368 122.941 50.9462H122.948Z" fill="#6DC285"/>
<path d="M120.084 49.8476C119.863 50.8156 119.526 51.7535 119.081 52.6413C118.9 53.0138 118.627 53.3339 118.287 53.5715C117.89 53.7657 117.459 53.8811 117.017 53.9112H116.916C116.798 53.9112 116.738 53.8795 116.738 53.8191C116.738 53.7588 116.808 53.6731 116.944 53.5842C117.338 53.3398 117.64 53.1366 117.852 52.9779C118.169 52.7535 118.454 52.4876 118.7 52.1874C119.215 51.4601 119.619 50.6597 119.897 49.8127C119.935 49.7111 119.979 49.6603 120.033 49.6603C120.087 49.6603 120.1 49.6921 120.1 49.7619C120.104 49.7957 120.104 49.8298 120.1 49.8635L120.084 49.8476Z" fill="#6DC285"/>
<path d="M116.846 48.2224C116.989 47.5144 117.24 46.8324 117.589 46.2001C117.649 46.07 117.7 46.0065 117.741 46.0065C117.783 46.0065 117.776 46.0319 117.776 46.0827C117.775 46.1287 117.769 46.1745 117.757 46.2192C117.642 46.832 117.563 47.4511 117.519 48.0732C117.382 49.4319 117.301 50.2076 117.278 50.4002C117.204 51.2223 116.929 52.0136 116.478 52.705C116.453 52.7449 116.422 52.7804 116.386 52.8098C116.383 52.8109 116.381 52.8115 116.378 52.8115C116.375 52.8115 116.372 52.8109 116.37 52.8098C116.37 52.8098 116.348 52.8098 116.348 52.778C116.349 52.738 116.357 52.6984 116.37 52.6606C116.493 52.0875 116.573 51.5059 116.608 50.9208C116.691 50.0235 116.77 49.125 116.846 48.2256V48.2224Z" fill="#6DC285"/>
<path d="M115.23 49.8476C115.009 50.8156 114.672 51.7535 114.227 52.6413C114.046 53.0147 113.771 53.3351 113.43 53.5715C113.028 53.7677 112.591 53.8831 112.144 53.9112H112.043C111.925 53.9112 111.868 53.8795 111.868 53.8191C111.868 53.7588 111.935 53.6731 112.075 53.5842C112.465 53.3398 112.77 53.1366 112.982 52.9779C113.305 52.7546 113.595 52.4887 113.846 52.1874C114.361 51.4601 114.765 50.6597 115.043 49.8127C115.078 49.7111 115.125 49.6603 115.179 49.6603C115.233 49.6603 115.246 49.6921 115.246 49.7619C115.245 49.7963 115.239 49.8304 115.23 49.8635V49.8476Z" fill="#6DC285"/>
<path d="M104.075 53.9907C105.611 54.0023 107.144 53.8232 108.636 53.4574C109.711 53.224 110.732 52.7935 111.649 52.1875C112.202 51.7875 112.652 51.0309 113.002 49.9177C113.014 49.8807 113.021 49.8423 113.024 49.8034C113.024 49.7494 113.005 49.724 112.967 49.724C112.929 49.724 112.833 49.7875 112.77 49.9145C112.614 50.2512 112.368 50.538 112.059 50.7431C111.5 51.105 110.576 51.4351 109.294 51.7367C107.82 52.0812 106.312 52.2559 104.798 52.2574C103.56 52.2574 102.694 52.1092 102.198 51.8129C102.037 51.727 101.904 51.5974 101.814 51.439C101.723 51.2806 101.679 51.0999 101.687 50.9177C101.687 50.7621 101.665 50.6859 101.617 50.6859C101.57 50.6859 101.481 50.8478 101.398 51.1685C101.316 51.5341 101.263 51.9056 101.24 52.2796C101.24 52.3653 101.24 52.4479 101.24 52.5272C101.218 52.7817 101.28 53.0361 101.415 53.2529C101.55 53.4696 101.751 53.6371 101.989 53.7304C102.672 53.9419 103.388 54.0301 104.103 53.9907H104.075Z" fill="#6DC285"/>
<path d="M105.455 47.8287C105.574 47.9612 105.712 48.0747 105.865 48.1652L106.1 48.3494C106.158 48.4063 106.232 48.444 106.312 48.4573C106.493 48.4573 106.751 48.1684 107.078 47.5875C107.259 47.7047 107.43 47.8375 107.589 47.9843C107.672 48.0798 107.783 48.1465 107.906 48.1748C108.001 48.1748 108.157 48.0383 108.366 47.7684C108.546 47.5679 108.657 47.3155 108.684 47.0478C108.671 46.9394 108.637 46.8347 108.582 46.7402C108.528 46.6457 108.454 46.5635 108.366 46.4985C108.228 46.3463 108.04 46.2484 107.836 46.2224C107.795 46.2224 107.687 46.3493 107.519 46.6065C107.398 46.7843 107.278 46.962 107.16 47.143C107.049 46.9797 106.907 46.8386 106.744 46.7271C106.614 46.6113 106.455 46.5334 106.284 46.5017C106.233 46.5017 106.084 46.7049 105.839 47.1144C105.684 47.3345 105.56 47.5748 105.471 47.8287H105.455Z" fill="#6DC285"/>
<path d="M119.234 44.8859C119.234 44.9398 119.272 44.9938 119.351 45.0478C119.43 45.1017 119.545 45.1779 119.643 45.2382C119.793 45.3609 119.959 45.4604 120.138 45.5335C120.24 45.5335 120.383 45.397 120.57 45.124C120.727 44.9267 120.824 44.6888 120.849 44.4382C120.832 44.2113 120.726 44.0003 120.554 43.8509C120.48 43.7587 120.388 43.6828 120.283 43.6282C120.178 43.5735 120.063 43.5413 119.945 43.5334C119.881 43.5334 119.748 43.7271 119.542 44.1112C119.39 44.3439 119.283 44.6021 119.224 44.8732L119.234 44.8859Z" fill="#6DC285"/>
<path d="M2.63747 93.478C2.63747 95.382 3.08547 96.544 4.42947 97.818L3.74347 98.49C2.10547 97.09 1.47547 95.62 1.47547 93.478C1.47547 91.322 2.10547 89.852 3.74347 88.452L4.42947 89.124C3.08547 90.398 2.63747 91.56 2.63747 93.478ZM11.1925 93.072H9.70845V91.91H11.1925V93.072ZM10.3525 101.416C7.98645 101.416 6.68445 99.974 6.68445 97.538V94.892H7.84645V97.51C7.84645 99.274 8.71445 100.212 10.3805 100.212H10.9685C12.5645 100.212 13.6145 99.218 13.6145 97.622V93.492H14.7765V97.51C14.7765 99.96 13.1945 101.416 10.9685 101.416H10.3525ZM19.6944 96.796C19.7644 96.796 19.8344 96.852 19.8344 97.412C19.8344 97.958 19.7644 98 19.6944 98H19.3304C17.8884 98 17.1604 97.09 17.1604 95.55V88.942H18.3224V95.494C18.3224 96.362 18.6724 96.796 19.3864 96.796H19.6944ZM25.2452 96.796C25.3012 96.796 25.3852 96.852 25.3852 97.398C25.3852 97.958 25.3012 98 25.2452 98H24.8112C23.9852 98 23.3972 97.734 23.1312 97.174C22.7952 97.734 22.1792 98 21.3812 98H19.7012C19.6452 98 19.5612 97.958 19.5612 97.412C19.5612 96.852 19.6452 96.796 19.7012 96.796H21.3812C22.0952 96.796 22.5712 96.404 22.5712 95.76V93.492H23.7332V95.732C23.7332 96.432 24.1252 96.796 24.8532 96.796H25.2452ZM22.5852 99.764V100.884H18.8892V99.764H22.5852ZM28.36 91.812H26.876V90.65H28.36V91.812ZM29.004 95.774C29.004 97.174 28.08 98 26.708 98H25.252C25.196 98 25.112 97.958 25.112 97.412C25.112 96.852 25.196 96.796 25.252 96.796H26.708C27.366 96.796 27.842 96.432 27.842 95.76V93.492H29.004V95.774ZM31.3791 98V88.942H32.5411V98H31.3791ZM36.9402 95.718C36.9402 96.404 37.3462 96.796 38.1162 96.796H38.2982C38.3542 96.796 38.4382 96.866 38.4382 97.412C38.4382 97.958 38.3542 98 38.2982 98H38.1162C37.6122 98 37.1362 97.804 36.9402 97.524V97.692C36.8982 99.96 35.4422 101.416 33.2722 101.416H32.2922L32.1802 100.212H33.2442C34.8262 100.212 35.7782 99.246 35.7782 97.594V93.492H36.9402V95.718ZM42.7889 93.492H43.9649V95.774C43.9649 97.174 43.0409 98 41.6689 98H38.2949C38.2389 98 38.1549 97.958 38.1549 97.412C38.1549 96.852 38.2389 96.796 38.2949 96.796H41.6689C42.3269 96.796 42.7889 96.432 42.7889 95.76V93.492ZM42.1309 99.764V100.884H38.4349V99.764H42.1309ZM46.3498 98V88.942H47.5118V98H46.3498ZM56.9052 101.416C54.5392 101.416 53.2372 99.974 53.2372 97.538V94.892H54.3992V97.51C54.3992 99.274 55.2672 100.212 56.9332 100.212H57.5212C59.1172 100.212 60.1672 99.218 60.1672 97.622V88.942H61.3292V97.51C61.3292 99.96 59.7472 101.416 57.5212 101.416H56.9052ZM66.3838 96.796C66.4538 96.796 66.5238 96.852 66.5238 97.412C66.5238 97.958 66.4538 98 66.3838 98H66.0198C64.5778 98 63.8498 97.09 63.8498 95.55V88.942H65.0118V95.494C65.0118 96.362 65.3618 96.796 66.0758 96.796H66.3838ZM67.0206 91.812V90.706H70.7166V91.812H67.0206ZM71.9346 96.796C71.9906 96.796 72.0746 96.852 72.0746 97.398C72.0746 97.958 71.9906 98 71.9346 98H71.5006C70.6746 98 70.0866 97.734 69.8206 97.174C69.4846 97.734 68.8686 98 68.0706 98H66.3906C66.3346 98 66.2506 97.958 66.2506 97.412C66.2506 96.852 66.3346 96.796 66.3906 96.796H68.0706C68.7846 96.796 69.2606 96.404 69.2606 95.76V93.492H70.4226V95.732C70.4226 96.432 70.8146 96.796 71.5426 96.796H71.9346ZM77.4854 96.796C77.5414 96.796 77.6254 96.852 77.6254 97.398C77.6254 97.958 77.5414 98 77.4854 98H77.0514C76.2254 98 75.6374 97.734 75.3714 97.174C75.0354 97.734 74.4194 98 73.6214 98H71.9414C71.8854 98 71.8014 97.958 71.8014 97.412C71.8014 96.852 71.8854 96.796 71.9414 96.796H73.6214C74.3354 96.796 74.8114 96.404 74.8114 95.76V93.492H75.9734V95.732C75.9734 96.432 76.3654 96.796 77.0934 96.796H77.4854ZM74.8254 99.764V100.884H71.1294V99.764H74.8254ZM78.7522 93.45L78.9062 92.232H82.2242C83.8902 92.232 84.6182 92.974 85.1502 95.186L84.0442 95.858C84.3382 96.572 84.7162 96.796 85.4442 96.796H86.3682C86.4242 96.796 86.5082 96.866 86.5082 97.412C86.5082 97.986 86.4242 98 86.3682 98H85.4022C84.2962 98 83.7222 97.622 83.1762 96.404L82.2102 97.006C81.0202 97.748 80.0822 98 78.4302 98H77.4922C77.4362 98 77.3522 97.958 77.3522 97.412C77.3522 96.852 77.4362 96.796 77.4922 96.796H78.4722C79.8862 96.796 80.6842 96.6 81.6642 96.04L83.7922 94.794C83.4982 93.772 83.0362 93.45 82.0282 93.45H78.7522ZM81.5662 100.94H80.0822V99.764H81.5662V100.94ZM88.9552 93.492H90.1172V95.774C90.1172 97.174 89.1932 98 87.8212 98H86.3652C86.3092 98 86.2252 97.958 86.2252 97.412C86.2252 96.852 86.3092 96.796 86.3652 96.796H87.8212C88.4792 96.796 88.9552 96.432 88.9552 95.76V93.492ZM89.3332 99.764V100.884H85.6372V99.764H89.3332ZM94.1584 91.77L94.9844 90.944L97.6724 94.038C98.3024 94.752 98.5124 95.34 98.5124 95.928C98.5124 97.132 97.6584 98 96.0624 98H92.0724L91.9604 96.796H96.0624C96.8884 96.796 97.3504 96.446 97.3504 95.914C97.3504 95.578 97.1824 95.256 96.7764 94.78L94.1584 91.77ZM107.107 92.316V91.21H110.803V92.316H107.107ZM115.367 96.796C115.423 96.796 115.507 96.852 115.507 97.412C115.507 97.958 115.423 98 115.367 98H114.947C114.121 98 113.533 97.734 113.267 97.174C112.931 97.734 112.315 98 111.503 98H106.561C104.881 98 104.083 97.034 104.083 95.578V93.492H105.245V95.424C105.245 96.264 105.651 96.796 106.631 96.796H111.503C112.231 96.796 112.693 96.404 112.693 95.774V93.492H113.855V95.732C113.855 96.432 114.247 96.796 114.989 96.796H115.367ZM117.953 93.492H119.115V95.774C119.115 97.174 118.191 98 116.819 98H115.363C115.307 98 115.223 97.958 115.223 97.412C115.223 96.852 115.307 96.796 115.363 96.796H116.819C117.477 96.796 117.953 96.432 117.953 95.76V93.492ZM118.331 99.764V100.884H114.635V99.764H118.331ZM128 96.796C128.07 96.796 128.14 96.852 128.14 97.412C128.14 97.958 128.07 98 128 98H126.656C126.488 100.142 125.116 101.416 123.044 101.416H121.322L121.21 100.212H123.058C124.556 100.212 125.508 99.358 125.522 98H124.122C122.176 98 121.406 97.216 121.406 95.55C121.406 93.786 122.498 92.582 124.066 92.582C125.69 92.582 126.684 93.744 126.684 95.62V96.796H128ZM122.568 95.48C122.568 96.432 122.974 96.796 124.192 96.796H125.522V95.704C125.522 94.416 124.99 93.758 123.996 93.758C123.128 93.758 122.568 94.458 122.568 95.48ZM130.194 96.796C129.606 96.39 129.214 95.62 129.214 94.892C129.214 93.366 130.376 92.232 131.93 92.232C133.386 92.232 134.506 93.338 134.506 94.78C134.506 95.592 134.086 96.334 133.344 96.796H135.416C136.242 96.796 136.662 96.446 136.662 95.914C136.662 95.578 136.536 95.242 136.046 94.738L133.204 91.756L134.044 90.902L136.942 93.996C137.572 94.668 137.824 95.298 137.824 95.928C137.824 97.174 136.928 98 135.416 98H133.834C132.644 98 132.196 97.958 131.846 97.776C131.496 97.958 130.936 98 129.802 98H127.996C127.94 98 127.856 97.958 127.856 97.412C127.856 96.852 127.94 96.796 127.996 96.796H130.194ZM131.79 96.768C132.826 96.334 133.386 95.662 133.386 94.892C133.386 94.01 132.756 93.408 131.86 93.408C130.964 93.408 130.334 94.01 130.334 94.892C130.334 95.69 130.838 96.334 131.79 96.768ZM141.859 93.478C141.859 91.56 141.425 90.398 140.067 89.124L140.767 88.452C142.391 89.852 143.021 91.322 143.021 93.478C143.021 95.62 142.391 97.09 140.767 98.49L140.067 97.818C141.425 96.544 141.859 95.382 141.859 93.478ZM145.416 98V88.942H146.578V98H145.416ZM151.964 96.796C152.622 96.796 153.056 96.474 153.056 96.04C153.056 95.634 152.79 94.934 151.502 91.462L152.58 90.972L154.218 95.62C154.512 96.46 154.82 96.796 155.492 96.796H155.786C155.856 96.796 155.926 96.866 155.926 97.412C155.926 97.986 155.856 98 155.786 98H155.45C154.61 98 154.05 97.734 153.728 97.118C153.378 97.734 152.818 98 151.964 98H148.688L148.576 96.796H151.964ZM157.989 96.796C157.401 96.39 157.009 95.62 157.009 94.892C157.009 93.366 158.171 92.232 159.725 92.232C161.181 92.232 162.301 93.338 162.301 94.78C162.301 95.592 161.881 96.334 161.139 96.796H163.211C164.037 96.796 164.457 96.446 164.457 95.914C164.457 95.578 164.331 95.242 163.841 94.738L160.999 91.756L161.839 90.902L164.737 93.996C165.367 94.668 165.619 95.298 165.619 95.928C165.619 97.174 164.723 98 163.211 98H161.629C160.439 98 159.991 97.958 159.641 97.776C159.291 97.958 158.731 98 157.597 98H155.791C155.735 98 155.651 97.958 155.651 97.412C155.651 96.852 155.735 96.796 155.791 96.796H157.989ZM159.585 96.768C160.621 96.334 161.181 95.662 161.181 94.892C161.181 94.01 160.551 93.408 159.655 93.408C158.759 93.408 158.129 94.01 158.129 94.892C158.129 95.69 158.633 96.334 159.585 96.768ZM176.504 95.396C176.504 96.404 176.868 96.796 177.526 96.796H177.862C177.932 96.796 178.002 96.852 178.002 97.412C178.002 97.958 177.932 98 177.862 98H177.526C176.546 98 175.874 97.608 175.65 96.67C175.23 97.118 174.418 97.314 173.648 97.314C172.08 97.314 171.198 96.46 171.198 94.78C171.198 93.212 172.29 91.924 173.928 91.924H175.342V90.958H176.504V95.396ZM172.36 94.752C172.36 95.648 172.794 96.11 173.718 96.11C174.712 96.11 175.342 95.718 175.342 95.102V93.1H173.928C172.962 93.1 172.36 93.688 172.36 94.752ZM180.965 91.812H179.481V90.65H180.965V91.812ZM181.609 95.774C181.609 97.174 180.685 98 179.313 98H177.857C177.801 98 177.717 97.958 177.717 97.412C177.717 96.852 177.801 96.796 177.857 96.796H179.313C179.971 96.796 180.447 96.432 180.447 95.76V93.492H181.609V95.774ZM186.519 96.796C186.589 96.796 186.659 96.852 186.659 97.412C186.659 97.958 186.589 98 186.519 98H186.155C184.713 98 183.985 97.09 183.985 95.55V88.942H185.147V95.494C185.147 96.362 185.497 96.796 186.211 96.796H186.519ZM186.847 96.796C187.519 96.796 187.841 96.502 187.841 95.9V95.326C187.841 93.534 188.849 92.442 190.515 92.442C192.181 92.442 193.105 93.436 193.105 95.27C193.105 97.006 192.111 98 190.473 98C189.493 98 188.835 97.692 188.513 97.132C188.205 97.734 187.715 98 186.847 98H186.525C186.469 98 186.385 97.958 186.385 97.412C186.385 96.852 186.469 96.796 186.525 96.796H186.847ZM191.943 95.27C191.943 94.178 191.467 93.618 190.473 93.618C189.479 93.618 189.003 94.178 189.003 95.326C189.003 96.236 189.535 96.796 190.473 96.796C191.439 96.796 191.943 96.306 191.943 95.27ZM198.017 96.796C198.087 96.796 198.157 96.852 198.157 97.412C198.157 97.958 198.087 98 198.017 98H197.653C196.211 98 195.483 97.09 195.483 95.55V88.942H196.645V95.494C196.645 96.362 196.995 96.796 197.709 96.796H198.017ZM199.115 96.796C199.955 96.796 200.417 96.362 200.417 95.69V93.492H201.593V95.69C201.593 96.39 201.985 96.796 202.839 96.796C203.679 96.796 204.141 96.362 204.141 95.69V93.492H205.303V95.69C205.303 96.39 205.709 96.796 206.493 96.796C207.277 96.796 207.697 96.39 207.697 95.69V93.492H208.859V95.662C208.859 97.132 207.935 98 206.493 98C205.527 98 204.939 97.692 204.673 97.132C204.337 97.692 203.721 98 202.839 98C201.803 98 201.215 97.692 200.949 97.132C200.613 97.692 199.997 98 199.115 98H198.023C197.967 98 197.883 97.958 197.883 97.412C197.883 96.852 197.967 96.796 198.023 96.796H199.115Z" fill="#6DC285"/>
</svg>
